<svg width="100" height="100" viewBox="0 0 100 100" fill="none" xmlns="http://www.w3.org/2000/svg">
<rect width="100" height="100" rx="8" fill="white"/>
<path d="M56.1011 76.9346V66.5179C56.1011 65.1366 55.5524 63.8118 54.5756 62.8351C53.5989 61.8583 52.2741 61.3096 50.8928 61.3096C49.5114 61.3096 48.1867 61.8583 47.2099 62.8351C46.2332 63.8118 45.6844 65.1366 45.6844 66.5179V76.9346" stroke="#1D4ED8" stroke-width="3" stroke-linecap="round" stroke-linejoin="round"/>
<path d="M66.5179 45.6846L75.4944 50.1742C75.9269 50.3903 76.2907 50.7225 76.5451 51.1337C76.7994 51.5449 76.9343 52.0188 76.9345 52.5023V71.7262C76.9345 73.1076 76.3858 74.4323 75.409 75.4091C74.4323 76.3858 73.1075 76.9346 71.7262 76.9346H30.0595C28.6782 76.9346 27.3534 76.3858 26.3767 75.4091C25.3999 74.4323 24.8512 73.1076 24.8512 71.7262V52.5023C24.8515 52.0188 24.9863 51.5449 25.2407 51.1337C25.495 50.7225 25.8588 50.3903 26.2913 50.1742L35.2679 45.6846" stroke="#1D4ED8" stroke-width="3" stroke-linecap="round" stroke-linejoin="round"/>
<path d="M66.5178 32.6637V76.9345" stroke="#1D4ED8" stroke-width="3" stroke-linecap="round" stroke-linejoin="round"/>
<path d="M30.0594 35.2679L48.5647 26.0153C49.2876 25.6541 50.0846 25.466 50.8928 25.466C51.7009 25.466 52.498 25.6541 53.2209 26.0153L71.7261 35.2679" stroke="#1D4ED8" stroke-width="3" stroke-linecap="round" stroke-linejoin="round"/>
<path d="M35.2678 32.6637V76.9345" stroke="#1D4ED8" stroke-width="3" stroke-linecap="round" stroke-linejoin="round"/>
<path d="M50.8928 48.2887C53.7693 48.2887 56.1011 45.9569 56.1011 43.0804C56.1011 40.2039 53.7693 37.8721 50.8928 37.8721C48.0163 37.8721 45.6844 40.2039 45.6844 43.0804C45.6844 45.9569 48.0163 48.2887 50.8928 48.2887Z" stroke="#1D4ED8" stroke-width="3" stroke-linecap="round" stroke-linejoin="round"/>
</svg>
